<?xml version='1.0' encoding='utf-8'?>
<svg xmlns="http://www.w3.org/2000/svg" version="1.1" viewBox="0 0 56.767 40.25"> <g transform="translate(-250.36 -827.94)" stroke="#000"> <path d="m290.38 854.55 16.429-3.2857v-16.429l-16.429 3.2857z" fill="#ccc" stroke-width=".65714"/> <path d="m290.38 838.12-6.5714-6.5714" fill="none" stroke-width=".65714"/> <path d="m306.81 834.83-6.5714-6.5714" fill="none" stroke-width=".65714"/> <path d="m300.24 828.26-16.429 3.2857v16.429l6.5714 6.5714" fill="none" stroke-width=".65714"/> <path d="m287.06 850.65-2.8438-2.8458v-15.247l5.752 5.752-0.0644 15.187-2.8438-2.8458z" fill="#fff" stroke-width=".025"/> <path d="m287.51 834.71-2.9612-2.9151 15.546-3.105 5.894 5.894-7.6041 1.5206c-4.1822 0.83636-7.6738 1.5206-7.759 1.5206s-1.4875-1.3118-3.1161-2.9152z" fill="#fff" stroke-width=".025"/> <g transform="translate(363.82 -175.96)"> <path d="m-90 1033.8 16.429-3.2857v-16.429l-16.429 3.2857z" fill="#ccc" stroke-width=".65714"/> <path d="m-90 1017.4-6.5714-6.5714" fill="none" stroke-width=".65714"/> <path d="m-73.571 1014.1-6.5714-6.5714" fill="none" stroke-width=".65714"/> <path d="m-80.143 1007.5-16.429 3.2857v16.429l6.5714 6.5714" fill="none" stroke-width=".65714"/> <path transform="translate(0 1004.4)" d="m-93.321 25.536-2.8438-2.8458v-15.247l5.752 5.752-0.06446 15.187-2.8438-2.8458z" fill="#fff" stroke-width=".025"/> <path transform="translate(0 1004.4)" d="m-92.873 9.5894-2.9612-2.9151 15.546-3.105 5.894 5.894-7.6041 1.5206c-4.1822 0.83636-7.6738 1.5206-7.759 1.5206-0.0852-1.7e-5 -1.4875-1.3118-3.1161-2.9152z" fill="#fff" stroke-width=".025"/> </g> <g transform="translate(347.26 -172.71)"> <path d="m-90 1033.8 16.429-3.2857v-16.429l-16.429 3.2857z" fill="#ccc" stroke-width=".65714"/> <path d="m-90 1017.4-6.5714-6.5714" fill="none" stroke-width=".65714"/> <path d="m-73.571 1014.1-6.5714-6.5714" fill="none" stroke-width=".65714"/> <path d="m-80.143 1007.5-16.429 3.2857v16.429l6.5714 6.5714" fill="none" stroke-width=".65714"/> <path transform="translate(0 1004.4)" d="m-93.321 25.536-2.8438-2.8458v-15.247l5.752 5.752-0.06446 15.187-2.8438-2.8458z" fill="#fff" stroke-width=".025"/> <path transform="translate(0 1004.4)" d="m-92.873 9.5894-2.9612-2.9151 15.546-3.105 5.894 5.894-7.6041 1.5206c-4.1822 0.83636-7.6738 1.5206-7.759 1.5206-0.0852-1.7e-5 -1.4875-1.3118-3.1161-2.9152z" fill="#fff" stroke-width=".025"/> </g> <path d="m263.86 867.78 16.429-3.2857v-16.429l-16.429 3.2857z" fill="#ccc" stroke-width=".65714"/> <path d="m263.86 851.36-6.5714-6.5714" fill="none" stroke-width=".65714"/> <path d="m280.29 848.07-6.5714-6.5714" fill="none" stroke-width=".65714"/> <path d="m273.72 841.5-16.429 3.2857v16.429l6.5714 6.5714" fill="none" stroke-width=".65714"/> <path d="m260.54 863.89-2.8438-2.8457v-15.247l5.752 5.752-0.0322 7.5935-0.0322 7.5934-2.8438-2.8457z" fill="#fff" stroke-width=".025"/> <path d="m260.99 847.94-2.9612-2.9151 15.546-3.105 5.894 5.894-7.6041 1.5206c-4.1822 0.83636-7.6738 1.5206-7.759 1.5206s-1.4875-1.3118-3.1161-2.9152z" fill="#fff" stroke-width=".025"/> <path d="m250.99 839c-0.24887 5.1182-0.12765 10.28-0.11601 15.402 1.9685 1.92 3.8347 3.963 5.9054 5.7673 0.44225-0.40252 0.0902-1.3388 0.22799-1.9278 0.0655-4.5039 0.072-9.0223 0.0206-13.518-1.9685-1.92-3.8347-3.963-5.9054-5.7673l-0.13258 0.0442z" fill="#ececec" stroke-width=".035355"/> <path d="m257.7 845.72c-0.24868 5.1699-0.12782 10.384-0.11601 15.556 1.9052 1.87 3.7153 3.8642 5.7232 5.6127 0.44165-0.40877 0.0983-1.3507 0.23337-1.9444 0.061-4.5573 0.0741-9.1291 0.0207-13.678-1.9066-1.858-3.7327-3.8621-5.7287-5.5906l-0.13258 0.0442z" fill="#ececec" stroke-width=".035355"/> <path d="m264.24 859.49 0.046-7.9646 7.6898-1.5467c4.2294-0.85067 7.7892-1.5505 7.9108-1.5553 0.17362-7e-3 0.22097 1.6904 0.22097 7.9202v7.9288l-15.913 3.1822 0.046-7.9647z" fill="#fc0" stroke-width=".035355"/> <path d="m280.46 852.09v-4.1423l-3.0936-3.0753c-1.7015-1.6914-3.0936-3.1262-3.0936-3.1884 0-0.10358 15.006-3.1707 15.512-3.1706 0.17349 4e-5 0.22098 1.701 0.22098 7.9154v7.9153l-4.3752 0.8677c-2.4064 0.47724-4.5542 0.90209-4.773 0.94411l-0.39775 0.0764v-4.1423z" fill="#fc0" stroke-width=".035355"/> <path d="m290.72 846.3v-7.955l0.39775-0.0951c0.42723-0.10221 15.378-3.0936 15.462-3.0936 0.0276 0 0.0501 3.5797 0.0501 7.955 0 4.3752-0.0225 7.955-0.0501 7.955-0.0836 0-15.035 2.9914-15.462 3.0936l-0.39775 0.0952v-7.955z" fill="#fc0" stroke-width=".035355"/> <path d="m287.46 834.82c-1.6483-1.6526-2.9595-3.0421-2.9139-3.0877s3.5738-0.77162 7.8404-1.6133l7.7574-1.5304 2.9754 2.9716c1.6365 1.6344 2.9173 3.0219 2.8463 3.0835s-3.4304 0.76583-7.4654 1.565c-4.0349 0.79917-7.4953 1.4897-7.6898 1.5346-0.27135 0.0626-1.0504-0.61711-3.3504-2.9232z" fill="#ff0" stroke-width=".035355"/> <path d="m270.93 838.08c-1.5986-1.6008-2.8527-2.9642-2.787-3.0299 0.13271-0.1327 14.686-3.0752 15.21-3.0752 0.18963 0 1.6119 1.2646 3.3434 2.9727l3.0134 2.9727-7.6707 1.5351c-4.2189 0.84431-7.7903 1.5351-7.9365 1.5351-0.14619 0-1.5737-1.3097-3.1722-2.9104z" fill="#ff0" stroke-width=".035355"/> <path d="m254.4 841.35c-1.6472-1.6494-2.9589-3.0338-2.9149-3.0765s3.523-0.7663 7.7311-1.6079l7.651-1.5302 0.65748 0.5287c1.143 0.91907 5.5645 5.4541 5.4057 5.5444-0.0836 0.0476-1.3453 0.3038-2.8037 0.56942-1.4584 0.26563-2.9301 0.55754-3.2704 0.64869-0.43427 0.11631-9.312 1.9223-9.4495 1.9223-7e-3 0-1.3597-1.3495-3.0069-2.9988z" fill="#ff0" stroke-width=".035355"/> <path d="m260.98 848.1c-1.6286-1.6168-2.961-2.9906-2.961-3.0529s3.4631-0.80574 7.6957-1.6521l7.6957-1.5389 0.65696 0.5283c0.36133 0.29056 1.761 1.6389 3.1104 2.9962 1.9884 2.0001 2.3905 2.4862 2.1213 2.5643-0.18265 0.053-1.406 0.30115-2.7186 0.5514-1.3126 0.25024-2.9433 0.57529-3.6239 0.72231s-2.9875 0.6169-5.1265 1.0442l-3.8891 0.77684-2.961-2.9397z" fill="#ff0" stroke-width=".035355"/> <path d="m253.64 857.21-2.9131-2.8726 0.0723-7.6403c0.0398-4.2022 0.13056-7.6986 0.20178-7.7698 0.0712-0.0712 1.4823 1.2191 3.1357 2.8674l3.0062 2.9969-0.0294 7.1905c-0.0299 7.3204-0.0667 8.1007-0.38189 8.1007-0.0982 0-1.4894-1.2927-3.0916-2.8726z" fill="#ff0" stroke-width=".035355"/> <path d="m260.38 864.12-2.8945-2.8612 9.2e-4 -6.0219c9.9e-4 -6.571 0.12679-9.469 0.41102-9.469 0.10001 0 1.4404 1.2497 2.9785 2.777l2.7967 2.777v7.8296c0 5.6876-0.0545 7.8296-0.19912 7.8296-0.10952 0-1.5016-1.2875-3.0936-2.8612z" fill="#ff0" stroke-width=".035355"/> </g> </svg>